#!OML:ASF E:/inclinewalkrobotboard/Project1/Captureday1/Session1/subject1.ASF
:FULLY-SPECIFIED
:DEGREES
313
root 0 0 0 -0.38284849788221276 -2.0365885340943795 -3.890751106950148
lowerback 16.56040680347313 1.0885023813746397 -0.12892041067870752
upperback 0.6358388597486073 1.4241183802768553 0.3210686390761599
thorax -8.673612448900762 0.6736392497149829 0.04917813282539729
lowerneck -7.476636861540811 -3.252108393921036 1.3477168327646334
upperneck -6.277347446415881 -4.212231116469042 1.6957475189701128
head -0.8259445486029708 -2.1895272612326226 0.22474842748522453
rclavicle -3.8064190208244307E-16 1.9329110030235188E-17
rhumerus 12.119329199279107 0.5584261774400368 -39.404582819791266
rradius 118.89914689751218
rwrist -30.854857113800595
rhand -11.65390624735303 -36.720235689671355
rfingers 7.125019999999965
rthumb 14.42802194898593 -66.13106389601208
lclavicle -3.8569737729635735E-16 -4.477244475225029E-16
lhumerus -43.53347826199082 -0.37965598864098327 83.1814235893916
lradius 45.5313586306007
lwrist 1.8396202469648684
lhand -15.370756915285618 -12.880225067362792
lfingers 7.125019999999939
lthumb 10.760335384847693 16.28479049330153
rfemur -2.7005476797887766 1.0040147343812655 5.3984105199232815
rtibia 8.087147840483622
rfoot -1.5210202974892346 -1.3163109056698419
rtoes 0.7731339039043039
lfemur -6.476006585237754 -3.5973251501238117 -12.153497498076277
ltibia 27.32925965731252
lfoot -19.41820628236132 8.101665362022139
ltoes -43.74282286264064
314
root 0 0 0 -0.38280469167557696 -2.036650029369859 -3.8908388700287704
lowerback 16.560972919740696 1.0883809484209503 -0.12901205317699382
upperback 0.6354004551247295 1.4239393691723863 0.3209951058170527
thorax -8.674368929088857 0.6735451921711053 0.049146079775150175
lowerneck -7.476786318263379 -3.2520007040121177 1.348169852115487
upperneck -6.281279160868568 -4.212006455657273 1.6953087786629404
head -0.8272286792702896 -2.18947654807306 0.2245955160418253
rclavicle -3.8065022685821934E-16 1.934982415479287E-17
rhumerus 12.119628737324803 0.558968948508209 -39.40417522972544
rradius 118.90044418581917
rwrist -30.8554244019183
rhand -11.653678691378364 -36.72161515987152
rfingers 7.125019999999965
rthumb 14.428236735917128 -66.13240035269693
lclavicle -3.855047619642666E-16 -4.475865334183324E-16
lhumerus -43.535164712385836 -0.37956888040756676 83.18168984066985
lradius 45.53363988102964
lwrist 1.8386999076525565
lhand -15.368869082006688 -12.886181461099634
lfingers 7.125019999999939
lthumb 10.762131227553793 16.279065693732523
rfemur -2.699884081034308 1.0037591809291753 5.397065709296417
rtibia 8.085175521172667
rfoot -1.5206319396747356 -1.315975557201801
rtoes 0.7729366978790713
lfemur -6.47573245780141 -3.597516741766356 -12.152919641981976
ltibia 27.32871280079965
lfoot -19.419274185305543 8.102591568251398
ltoes -43.74590857008188
315
root 0 0 0 -0.3827609592500426 -2.0367113643102948 -3.890926692485449
lowerback 16.561536902668124 1.0882601271143224 -0.12910318768640816
upperback 0.6349627820226709 1.4237612576592973 0.3209216488757237
thorax -8.675123463710667 0.6734515823587341 0.049113786155708494
lowerneck -7.476935790218307 -3.2518935094766013 1.348621436611697
upperneck -6.285199639430967 -4.211782840600498 1.6948717364417185
head -0.8285090803696207 -2.1894261136381203 0.2244431746360811
rclavicle -3.806584062704632E-16 1.937052240658537E-17
rhumerus 12.119925580097096 0.5595123682858265 -39.40376961019123
rradius 118.90173882237582
rwrist -30.85599070163286
rhand -11.653450683651991 -36.72299543593185
rfingers 7.125019999999965
rthumb 14.428451950558525 -66.13373757493858
lclavicle -3.8531228947877384E-16 -4.474486757506889E-16
lhumerus -43.53685026826751 -0.379481857644856 83.1819559335674
lradius 45.535919948352046
lwrist 1.8377801043970519
lhand -15.366982294213026 -12.892134658466516
lfingers 7.125019999999939
lthumb 10.763926086991148 16.27334399086813
rfemur -2.699220720057472 1.003503702097384 5.395721316720422
rtibia 8.083203863107247
rfoot -1.5202436903114602 -1.315640322187392
rtoes 0.7727395439032365
lfemur -6.475458381708026 -3.5977082732915058 -12.152342015494442
ltibia 27.328166118166372
lfoot -19.42034170421111 8.10351742771528
ltoes -43.74899311827339
316
root 0 0 0 -0.3827172955130831 -2.036772546152196 -3.8910145838630164
lowerback 16.562098825585053 1.0881399019947087 -0.12919382646971156
upperback 0.634525789361622 1.4235840229049195 0.3208482595269452
thorax -8.675876145138679 0.6733584083519805 0.049081249037654984
lowerneck -7.477085293349082 -3.251786797152638 1.3490716418305606
upperneck -6.2891093666321645 -4.211560243227857 1.6944363377571994
head -0.8297859104936638 -2.189375951681245 0.22429138431873075
rclavicle -3.8066644201597623E-16 1.9391207037376797E-17
rhumerus 12.12021977428165 0.5600564906435181 -39.403365907099065
rradius 118.90303095938157
rwrist -30.856556078518896
rhand -11.653222202563772 -36.72437665960982
rfingers 7.125019999999965
rthumb 14.428667613302265 -66.1350757001399
lclavicle -3.8511993820031684E-16 -4.473108592887622E-16
lhumerus -43.53853511654775 -0.37939491032681993 83.18222189769713
lradius 45.53819908485524
lwrist 1.8368607347818307
lhand -15.36509634258664 -12.898085319527079
lfingers 7.125019999999939
lthumb 10.765720162298543 16.267624750128235
rfemur -2.698557524067719 1.0032482699273477 5.394377194961349
rtibia 8.081232650126665
rfoot -1.5198555069432023 -1.315305163873946
rtoes 0.7725424204194635
lfemur -6.475184326978352 -3.597899765751344 -12.151764554951164
ltibia 27.327619549358168
lfoot -19.421408956554437 8.104443042359986
ltoes -43.752076846866814
